<?xml version="1.0" encoding="UTF-8" standalone="no"?>
<!DOCTYPE svg PUBLIC "-//W3C//DTD SVG 1.1//EN" "http://www.w3.org/Graphics/SVG/1.1/DTD/svg11.dtd">
<svg width="100%" height="100%" viewBox="0 0 100 100" version="1.1" xmlns="http://www.w3.org/2000/svg" xmlns:xlink="http://www.w3.org/1999/xlink" xml:space="preserve" xmlns:serif="http://www.serif.com/" style="fill-rule:evenodd;clip-rule:evenodd;stroke-linejoin:round;stroke-miterlimit:2;">
    <g id="icon">
        <path d="M100,16.561C100,7.421 92.579,0 83.439,0L16.561,0C7.421,0 0,7.421 0,16.561L0,83.439C0,92.579 7.421,100 16.561,100L83.439,100C92.579,100 100,92.579 100,83.439L100,16.561ZM27,49C15.686,49 6.5,58.186 6.5,69.5C6.5,80.814 15.686,90 27,90C38.314,90 47.5,80.814 47.5,69.5C47.5,58.186 38.314,49 27,49ZM73,49C61.686,49 52.5,58.186 52.5,69.5C52.5,80.814 61.686,90 73,90C84.314,90 93.5,80.814 93.5,69.5C93.5,58.186 84.314,49 73,49ZM27,53C36.107,53 43.5,60.393 43.5,69.5C43.5,78.607 36.107,86 27,86C17.893,86 10.5,78.607 10.5,69.5C10.5,60.393 17.893,53 27,53ZM73,53C82.107,53 89.5,60.393 89.5,69.5C89.5,78.607 82.107,86 73,86C63.893,86 56.5,78.607 56.5,69.5C56.5,60.393 63.893,53 73,53ZM29.085,63.9L34.665,63.9L35.145,60.12L18.315,60.12L18.315,63.9L24.165,63.9L24.165,80.91L29.085,80.91L29.085,63.9ZM81.31,69.5C81.31,62.75 78.46,58.58 73,58.58C67.54,58.58 64.69,62.9 64.69,69.5C64.69,76.25 67.54,80.42 73,80.42C78.46,80.42 81.31,76.1 81.31,69.5ZM76.27,69.5C76.27,74.54 75.4,76.82 73,76.82C70.69,76.82 69.73,74.6 69.73,69.5C69.73,64.4 70.66,62.18 73,62.18C75.34,62.18 76.27,64.4 76.27,69.5ZM50,8C38.686,8 29.5,17.186 29.5,28.5C29.5,39.814 38.686,49 50,49C61.314,49 70.5,39.814 70.5,28.5C70.5,17.186 61.314,8 50,8ZM50,12C59.107,12 66.5,19.393 66.5,28.5C66.5,37.607 59.107,45 50,45C40.893,45 33.5,37.607 33.5,28.5C33.5,19.393 40.893,12 50,12ZM50.395,17.58C44.905,17.58 40.675,21.51 40.675,28.47C40.675,35.61 44.695,39.42 50.335,39.42C53.545,39.42 55.795,38.16 57.325,36.6L55.105,33.75C53.935,34.68 52.675,35.61 50.605,35.61C47.755,35.61 45.775,33.48 45.775,28.47C45.775,23.37 47.875,21.24 50.515,21.24C52.135,21.24 53.515,21.84 54.655,22.77L57.055,19.86C55.315,18.42 53.395,17.58 50.395,17.58Z"/>
    </g>
</svg>
